# xmcd CD database file
#
# Track frame offsets:
#	187
#	31362
#	53430
#	73705
#	93700
#	118162
#	137587
#	159557
#	183085
#
# Disc length: 2532 seconds
#
# Revision: 2
# Processed by: cddbd v1.5.1PL0 Copyright (c) Steve Scherf et al.
# Submitted via: CDex 1.51
#
DISCID=7509e209
DTITLE=Paradox - Heresy
DYEAR=1989
DGENRE=Heavy Metal
TTITLE0=Heresy
TTITLE1=Search For Perfection
TTITLE2=Killtime
TTITLE3=Crusaders Revenge
TTITLE4=The Burning
TTITLE5=Massacre Of The Cathars
TTITLE6=Serenity
TTITLE7=700 Years On
TTITLE8=Castle In The Wind
EXTD=YEAR: 1989
EXTT0=
EXTT1=
EXTT2=
EXTT3=
EXTT4=
EXTT5=
EXTT6=
EXTT7=
EXTT8=
PLAYORDER=
